<svg xmlns="http://www.w3.org/2000/svg" viewBox="0 0 128 128" width="128" height="128">
  <defs>
    <linearGradient id="bg_g" x1="0" y1="0" x2="0" y2="1">
      <stop offset="0%" stop-color="#141c2e"/>
      <stop offset="100%" stop-color="#0a0d13"/>
    </linearGradient>
    <linearGradient id="shield_g" x1="0" y1="0" x2="0" y2="1">
      <stop offset="0%" stop-color="#2dd4a0"/>
      <stop offset="100%" stop-color="#1a9e78"/>
    </linearGradient>
  </defs>

  <circle cx="64" cy="64" r="62" fill="url(#bg_g)"/>
  <circle cx="64" cy="64" r="62" fill="none" stroke="#263048" stroke-width="1.5"/>

  <path d="M64 16 L96 29 L96 63 C96 83 82 97 64 106 C46 97 32 83 32 63 L32 29 Z"
        fill="url(#shield_g)" opacity="0.10"/>
  <path d="M64 20 L93 32 L93 63 C93 81 80 94 64 103 C48 94 35 81 35 63 L35 32 Z"
        fill="none" stroke="url(#shield_g)" stroke-width="2"/>

  <path d="M75 36 C67 36 61 43 61 51 C61 59 67 66 75 66
           C70 65 66 61 66 55 C66 46 70 40 75 36 Z"
        fill="#2dd4a0"/>
  <polygon points="79,36 80.8,41.4 86.5,41.4 81.9,44.6 83.7,50 79,46.8 74.3,50 76.1,44.6 71.5,41.4 77.2,41.4"
           fill="#2dd4a0"/>

  <rect x="49" y="76" width="30" height="22" rx="4" ry="4"
        fill="#2dd4a0" opacity="0.95"/>
  <path d="M56 76 L56 70 C56 63 72 63 72 70 L72 76"
        fill="none" stroke="#2dd4a0" stroke-width="3.5"
        stroke-linecap="round" stroke-linejoin="round"/>
  <circle cx="64" cy="85" r="3" fill="#0a0d13"/>
  <rect x="62.5" y="85" width="3" height="6" rx="1.5" fill="#0a0d13"/>
</svg>